Coordinates
version=1
nRows=38
nColumns=12
inDegrees=yes

Units are S.I. units (second, meters, Newtons, ...)
Angles are in degrees

endheader
time	SC_y	SC_z	SC_x	AC_y	AC_z	AC_x	GH_y	GH_z	GH_yy	EL_x	PS_y
       0.0              -27.79          8.796           31.7          53.99          3.351         -8.936          158.6          7.016          166.0          94.55          47.81
    0.0434               -27.8          8.796           31.7          53.99          3.348         -8.933          158.6          7.028          166.0          94.56          47.81
   0.08679               -27.8          8.796           31.7          53.99          3.345          -8.93          158.5           7.04          166.0          94.56          47.81
    0.1302               -27.8          8.796          31.69          53.99          3.341         -8.927          158.5          7.054          166.0          94.56          47.81
    0.1736               -27.8          8.796          31.69          53.99          3.337         -8.924          158.4          7.069          166.0          94.57          47.81
     0.217               -27.8          8.796          31.69          53.99          3.333          -8.92          158.3          7.084          166.0          94.58          47.81
    0.2604              -27.81          8.796          31.69          53.99          3.328         -8.916          158.3            7.1          166.0          94.58          47.81
    0.3038              -27.81          8.797          31.68           54.0          3.323         -8.912          158.2          7.118          166.0          94.59          47.82
    0.3472              -27.81          8.797          31.68           54.0          3.318         -8.908          158.1          7.137          166.0           94.6          47.82
    0.3906              -27.82          8.797          31.67           54.0          3.312         -8.903          158.1          7.157          166.0           94.6          47.82
     0.434              -27.82          8.797          31.67           54.0          3.306         -8.898          158.0          7.179          166.0          94.61          47.82
    0.4774              -27.82          8.797          31.67           54.0            3.3         -8.893          157.9          7.202          166.0          94.62          47.82
    0.5208              -27.83          8.798          31.66           54.0          3.293         -8.887          157.8          7.227          166.0          94.63          47.83
    0.5641              -27.83          8.798          31.66           54.0          3.285         -8.881          157.7          7.255          166.0          94.64          47.83
    0.6075              -27.84          8.798          31.65           54.0          3.277         -8.874          157.6          7.284          166.0          94.65          47.83
    0.6509              -27.84          8.799          31.64           54.0          3.268         -8.867          157.5          7.316          166.0          94.66          47.84
    0.6943              -27.85          8.799          31.64           54.0          3.259         -8.859          157.3          7.351          166.0          94.67          47.84
    0.7377              -27.85          8.799          31.63           54.0          3.248          -8.85          157.2          7.388          166.0          94.69          47.84
    0.7811              -27.86            8.8          31.62           54.0          3.237          -8.84          157.0           7.43          166.0           94.7          47.85
    0.8245              -27.86            8.8          31.61           54.0          3.224          -8.83          156.9          7.475          165.9          94.72          47.85
    0.8679              -27.87          8.801           31.6          54.01          3.211         -8.818          156.7          7.525          165.9          94.74          47.85
    0.9113              -27.88          8.801          31.59          54.01          3.196         -8.806          156.5          7.579          165.9          94.76          47.86
    0.9547              -27.89          8.802          31.58          54.01          3.179         -8.792          156.2           7.64          165.9          94.78          47.87
    0.9981               -27.9          8.802          31.57          54.01          3.161         -8.776          156.0          7.706          165.9           94.8          47.87
     1.042              -27.91          8.803          31.55          54.01           3.14         -8.759          155.7          7.781          165.9          94.83          47.88
     1.085              -27.92          8.804          31.53          54.01          3.117          -8.74          155.4          7.864          165.9          94.86          47.89
     1.128              -27.94          8.805          31.52          54.02          3.091         -8.719          155.0          7.956          165.9           94.9           47.9
     1.172              -27.95          8.806           31.5          54.02          3.063         -8.694          154.6          8.061          165.9          94.93          47.91
     1.215              -27.97          8.807          31.47          54.02           3.03         -8.667          154.2          8.179          165.9          94.98          47.92
     1.258              -27.99          8.808          31.45          54.03          2.993         -8.636          153.7          8.313          165.8          95.03          47.93
     1.302              -28.01           8.81          31.42          54.03          2.951         -8.601          153.1          8.466          165.8          95.08          47.94
     1.345              -28.04          8.812          31.38          54.03          2.902          -8.56          152.4          8.642          165.8          95.15          47.96
     1.389              -28.07          8.814          31.34          54.04          2.846         -8.513          151.6          8.845          165.8          95.22          47.98
     1.432              -28.11          8.816          31.29          54.04          2.781         -8.459          150.7           9.08          165.7          95.31           48.0
     1.475              -28.15          8.819          31.24          54.05          2.705         -8.395          149.7          9.356          165.7          95.41          48.03
     1.519               -28.2          8.822          31.18          54.06          2.615          -8.32          148.5          9.681          165.7          95.53          48.06
     1.562              -28.26          8.826           31.1          54.07          2.508         -8.231          147.0          10.07          165.6          95.67           48.1
     1.606              -28.33           8.83          31.01          54.08           2.38         -8.124          145.2          10.53          165.5          95.84          48.14
